<svg xmlns="http://www.w3.org/2000/svg" viewBox="0 0 64 64" width="64" height="64">
  <defs>
    <linearGradient id="bg" x1="0" y1="0" x2="1" y2="1">
      <stop offset="0%" stop-color="#4096ff"/>
      <stop offset="100%" stop-color="#1d39c4"/>
    </linearGradient>
  </defs>
  <rect width="64" height="64" rx="14" fill="url(#bg)"/>
  <path d="M18 28 L18 40 C18 44 24 46 32 46 C40 46 46 44 46 40 L46 28 L32 34 Z" fill="#ffffff" fill-opacity="0.95"/>
  <path d="M32 14 L60 24 L32 34 L4 24 Z" fill="#ffffff"/>
  <circle cx="32" cy="24" r="2" fill="#1d39c4"/>
  <path d="M32 24 Q50 26 54 32 L54 42" stroke="#ffd666" stroke-width="2" stroke-linecap="round" fill="none"/>
  <circle cx="54" cy="44" r="2.5" fill="#ffd666"/>
  <path d="M52 47 L51 52 M54 47 L54 53 M56 47 L57 52" stroke="#ffd666" stroke-width="1.5" stroke-linecap="round" fill="none"/>
</svg>
